/* XPM */
static char *ce5ffa7823ab456de808b9de84f58e1707cXILZjyBljrRNJ[] = {
/* columns rows colors chars-per-pixel */
"64 64 2 1 ",
"  c #19142B",
". c #ADB4BF",
/* pixels */
"                                                                ",
"                                                                ",
"                                                                ",
"                                                                ",
"                                                                ",
"                                                                ",
"                                                                ",
"                                                                ",
"                                                                ",
"                                                                ",
"                 ....    ....                                   ",
"                 ....    ....                                   ",
"                 ....    ....                                   ",
"                 ....    ....                                   ",
"                 ............                                   ",
"                 ............                                   ",
"                 ............                                   ",
"                 ............                                   ",
"             ........    ....                                   ",
"             ........    ....                                   ",
"             ........    ....                                   ",
"             ........    ....                                   ",
"             ........................................           ",
"             ........................................           ",
"             ........................................           ",
"             ........................................           ",
"                 ............................                   ",
"                 ............................                   ",
"                 ............................                   ",
"                 ............................                   ",
"                 ............................                   ",
"                 ............................                   ",
"                 ............................                   ",
"                 ............................                   ",
"                 ....    ....    ....    ....                   ",
"                 ....    ....    ....    ....                   ",
"                 ....    ....    ....    ....                   ",
"                 ....    ....    ....    ....                   ",
"                 ....            ....                           ",
"                 ....            ....                           ",
"                 ....            ....                           ",
"                 ....            ....                           ",
"                                                                ",
"                                                                ",
"                                                                ",
"                                                                ",
"                                                                ",
"                                                                ",
"                                                                ",
"                                                                ",
"                                                                ",
"                                                                ",
"                                                                ",
"                                                                ",
"                                                                ",
"                                                                ",
"                                                                ",
"                                                                ",
"                                                                ",
"                                                                ",
"                                                                ",
"                                                                ",
"                                                                ",
"                                                                "
};
