/* XPM */
static char *_07a195cfbfe4897ce3dcb7d65013ae7J9xzabQj4kLBoV86[] = {
/* columns rows colors chars-per-pixel */
"64 64 2 1 ",
"  c #19142B",
". c #ADB4BF",
/* pixels */
"                                                                ",
"                                                                ",
"                                                                ",
"                                                                ",
"                                                                ",
"                                                                ",
"                                                                ",
"                                                                ",
"        ....................    ........    ............        ",
"        ....................    ........    ............        ",
"        ....................    ........    ............        ",
"        ....................    ........    ............        ",
"        ....                                        ....        ",
"        ....                                        ....        ",
"        ....                                        ....        ",
"        ....                                        ....        ",
"        ....                                        ....        ",
"        ....                                        ....        ",
"        ....    ....                                ....        ",
"        ....    ....                                ....        ",
"        ....    ....                                ....        ",
"        ....    ....                                ....        ",
"        ....    ....                                ....        ",
"        ....    ....                                ....        ",
"        ....    ....    ....                        ....        ",
"        ....    ....    ....                        ....        ",
"        ....    ....    ....                        ....        ",
"        ....    ....    ....                        ....        ",
"        ....    ....    ....                        ....        ",
"        ....    ....    ....                        ....        ",
"        ....    ....    ....    ....                ....        ",
"        ....    ....    ....    ....                ....        ",
"        ....    ....    ....    ....                ....        ",
"        ....    ....    ....    ....                ....        ",
"        ....    ....    ....    ....                ....        ",
"        ....    ....    ....    ....                ....        ",
"        ....    ....    ....    ....    ....        ....        ",
"        ....    ....    ....    ....    ....        ....        ",
"        ....    ....    ....    ....    ....        ....        ",
"        ....    ....    ....    ....    ....        ....        ",
"        ....    ....    ....    ....    ....        ....        ",
"        ....    ....    ....    ....    ....        ....        ",
"        ....    ....    ....    ....    ....        ....        ",
"        ....    ....    ....    ....    ....        ....        ",
"        ....    ....    ....    ....    ....        ....        ",
"        ....    ....    ....    ....    ....        ....        ",
"        ....    ....    ....    ....    ....        ....        ",
"        ....    ....    ....    ....    ....        ....        ",
"        ....    ....    ....    ....    ....        ....        ",
"        ....    ....    ....    ....    ....        ....        ",
"        ....    ....    ....    ....    ....        ....        ",
"        ....    ....    ....    ....    ....        ....        ",
"        ................................................        ",
"        ................................................        ",
"        ................................................        ",
"        ................................................        ",
"                                                                ",
"                                                                ",
"                                                                ",
"                                                                ",
"                                                                ",
"                                                                ",
"                                                                ",
"                                                                "
};
