/* XPM */
static char *_0aaef6a224048e3db4440a9b15a1862Z2XOWBLlRcKdZ8zN[] = {
/* columns rows colors chars-per-pixel */
"64 64 2 1 ",
"  c #19142B",
". c #ADB4BF",
/* pixels */
"                                                                ",
"                                                                ",
"                                                                ",
"                                                                ",
"                                                                ",
"                                                                ",
"                                                                ",
"                                                                ",
"                                                                ",
"                                                                ",
"                                   ....    ....                 ",
"                                   ....    ....                 ",
"                                   ....    ....                 ",
"                                   ....    ....                 ",
"                                   ............                 ",
"                                   ............                 ",
"                                   ............                 ",
"                                   ............                 ",
"                                   ....    ........             ",
"                                   ....    ........             ",
"                                   ....    ........             ",
"                                   ....    ........             ",
"           ........................................             ",
"           ........................................             ",
"           ........................................             ",
"           ........................................             ",
"                   ............................                 ",
"                   ............................                 ",
"                   ............................                 ",
"                   ............................                 ",
"                   ............................                 ",
"                   ............................                 ",
"                   ............................                 ",
"                   ............................                 ",
"                   ....    ....    ....    ....                 ",
"                   ....    ....    ....    ....                 ",
"                   ....    ....    ....    ....                 ",
"                   ....    ....    ....    ....                 ",
"                           ....            ....                 ",
"                           ....            ....                 ",
"                           ....            ....                 ",
"                           ....            ....                 ",
"                                                                ",
"                                                                ",
"                                                                ",
"                                                                ",
"                                                                ",
"                                                                ",
"                                                                ",
"                                                                ",
"                                                                ",
"                                                                ",
"                                                                ",
"                                                                ",
"                                                                ",
"                                                                ",
"                                                                ",
"                                                                ",
"                                                                ",
"                                                                ",
"                                                                ",
"                                                                ",
"                                                                ",
"                                                                "
};
