/* XPM */
static char *a51bc97db7a64655b90e7e19c7fc0321VEyLIUW0msKIgB97[] = {
/* columns rows colors chars-per-pixel */
"64 64 2 1 ",
"  c #19142B",
". c #ADB4BF",
/* pixels */
"                                                                ",
"                                                                ",
"                                                                ",
"                                                                ",
"                                                                ",
"                                                                ",
"                                                                ",
"                                                                ",
"                                                                ",
"                                                                ",
"                                   ....    ....                 ",
"                                   ....    ....                 ",
"                                   ....    ....                 ",
"                                   ....    ....                 ",
"                                   ............                 ",
"                                   ............                 ",
"                                   ............                 ",
"                                   ............                 ",
"           ....                    ....    ........             ",
"           ....                    ....    ........             ",
"           ....                    ....    ........             ",
"           ....                    ....    ........             ",
"               ....................................             ",
"               ....................................             ",
"               ....................................             ",
"               ....................................             ",
"                   ............................                 ",
"                   ............................                 ",
"                   ............................                 ",
"                   ............................                 ",
"                   ............................                 ",
"                   ............................                 ",
"                   ............................                 ",
"                   ............................                 ",
"                   ....    ....    ....    ....                 ",
"                   ....    ....    ....    ....                 ",
"                   ....    ....    ....    ....                 ",
"                   ....    ....    ....    ....                 ",
"                   ....            ....                         ",
"                   ....            ....                         ",
"                   ....            ....                         ",
"                   ....            ....                         ",
"                                                                ",
"                                                                ",
"                                                                ",
"                                                                ",
"                                                                ",
"                                                                ",
"                                                                ",
"                                                                ",
"                                                                ",
"                                                                ",
"                                                                ",
"                                                                ",
"                                                                ",
"                                                                ",
"                                                                ",
"                                                                ",
"                                                                ",
"                                                                ",
"                                                                ",
"                                                                ",
"                                                                ",
"                                                                "
};
