/* XPM */
static char *_9553c86e2764df1adb13c8a8d766e544OTWrj54waKD4gQE[] = {
/* columns rows colors chars-per-pixel */
"64 64 2 1 ",
"  c #19142B",
". c #ADB4BF",
/* pixels */
"................................................................",
"................................................................",
"................................................................",
"................................................................",
"................    ............    ............    ............",
"................    ............    ............    ............",
"................    ............    ............    ............",
"................    ............    ............    ............",
"........                                                ........",
"........                                                ........",
"........                                                ........",
"........                                                ........",
"....                                ........            ........",
"....                                ........            ........",
"....                                ........            ........",
"....                                ........            ........",
"........            ........                    ....        ....",
"........            ........                    ....        ....",
"........            ........                    ....        ....",
"........            ........                    ....        ....",
"........    ....                                        ........",
"........    ....                                        ........",
"........    ....                                        ........",
"........    ....                                        ........",
"........                ....                ........    ........",
"........                ....                ........    ........",
"........                ....                ........    ........",
"........                ....                ........    ........",
"....                                                    ........",
"....                                                    ........",
"....                                                    ........",
"....                                                    ........",
"........                            ........                ....",
"........                            ........                ....",
"........                            ........                ....",
"........                            ........                ....",
"........    ....                                        ........",
"........    ....                                        ........",
"........    ....                                        ........",
"........    ....                                        ........",
"........            ........                            ........",
"........            ........                            ........",
"........            ........                            ........",
"........            ........                            ........",
"....                                ....                ........",
"....                                ....                ........",
"....                                ....                ........",
"....                                ....                ........",
"........                                        ....        ....",
"........    ....                                ....        ....",
"........    ....                                ....        ....",
"........    ....                                ....        ....",
"........    ....                                        ........",
"........                                                ........",
"........                                                ........",
"........                                                ........",
"............    ............    ............    ................",
"............    ............    ............    ................",
"............    ............    ............    ................",
"............    ............    ............    ................",
"................................................................",
"................................................................",
"................................................................",
"................................................................"
};
